<?xml version="1.0" standalone="no"?>
<!DOCTYPE svg PUBLIC "-//W3C//DTD SVG 20010904//EN"
 "http://www.w3.org/TR/2001/REC-SVG-20010904/DTD/svg10.dtd">
<svg version="1.0" xmlns="http://www.w3.org/2000/svg"
 width="820.000000pt" height="384.000000pt" viewBox="0 0 820.000000 384.000000"
 preserveAspectRatio="xMidYMid meet">

<g transform="translate(0.000000,384.000000) scale(0.100000,-0.100000)"
fill="#000000" stroke="none">
<path d="M135 3783 c-80 -42 -125 -113 -125 -198 0 -167 173 -269 320 -189 55
30 99 87 107 141 4 26 10 33 22 30 41 -13 169 -60 198 -73 17 -7 35 -14 41
-14 5 0 43 -13 83 -29 41 -16 157 -59 259 -96 102 -37 194 -71 205 -76 11 -5
94 -36 184 -69 91 -34 168 -63 173 -66 5 -3 0 -16 -11 -30 -11 -14 -22 -42
-26 -64 l-7 -40 -559 0 c-540 0 -559 1 -559 19 0 33 -30 92 -63 123 -44 41
-93 61 -152 61 -123 0 -215 -93 -215 -219 0 -227 306 -296 411 -92 10 21 19
46 19 58 0 25 22 25 75 0 22 -11 45 -19 51 -20 6 0 45 -13 85 -29 41 -16 181
-68 312 -116 131 -48 235 -91 230 -95 -4 -4 -116 -46 -248 -94 -132 -48 -248
-92 -257 -97 -10 -5 -23 -9 -29 -9 -6 0 -25 -7 -42 -14 -42 -19 -148 -56 -162
-56 -6 0 -16 20 -23 44 -25 94 -105 151 -212 150 -53 0 -73 -5 -106 -27 -69
-43 -104 -108 -104 -191 0 -139 127 -238 265 -207 30 7 65 21 79 32 26 21 37
19 361 -58 33 -8 87 -20 120 -28 33 -7 73 -17 89 -22 32 -10 43 -6 -159 -53
-49 -12 -117 -27 -150 -35 -240 -57 -236 -57 -254 -42 -27 25 -91 47 -136 47
-164 0 -267 -176 -189 -321 42 -77 136 -128 215 -115 44 7 109 36 109 48 0 11
35 10 79 -2 20 -6 117 -28 216 -50 99 -23 204 -46 233 -53 55 -12 66 -24 30
-31 -50 -10 -244 -54 -417 -96 -106 -25 -126 -25 -162 1 -42 30 -135 37 -193
15 -176 -67 -183 -319 -12 -400 43 -20 138 -21 181 0 68 32 125 107 125 165 0
18 19 19 559 19 l559 0 7 -37 c3 -21 13 -49 22 -62 8 -13 11 -27 6 -31 -4 -5
-53 -18 -108 -30 -55 -12 -125 -28 -155 -35 -30 -7 -129 -29 -220 -50 -172
-39 -228 -52 -345 -80 -38 -9 -97 -23 -130 -30 -33 -7 -91 -21 -130 -29 -129
-30 -129 -30 -172 -2 -71 47 -190 35 -255 -26 -91 -86 -91 -235 -1 -320 99
-95 268 -70 335 49 44 77 39 177 -10 235 -12 15 -12 18 -1 22 20 6 105 27 174
42 58 12 119 26 260 59 36 9 93 22 127 29 35 8 92 21 128 29 36 9 108 25 160
37 52 13 122 29 155 36 33 8 94 21 136 30 l76 16 49 -26 c131 -70 294 0 319
138 l7 36 559 0 559 0 0 -23 c0 -55 63 -137 126 -163 45 -19 138 -18 180 2 48
23 103 90 116 141 l10 43 558 0 557 0 7 -38 c18 -115 139 -183 276 -155 51 10
126 87 141 146 l13 47 557 0 556 0 6 -41 c7 -52 49 -106 108 -137 60 -32 167
-29 217 7 47 33 89 95 97 141 6 36 10 41 48 51 144 37 306 80 332 89 17 5 73
20 125 34 377 100 557 149 572 157 25 13 38 11 38 -5 0 -28 38 -101 66 -130
37 -37 105 -66 154 -66 21 0 59 9 84 20 112 48 164 173 117 282 -79 185 -334
180 -406 -8 l-17 -44 -21 27 c-12 16 -24 30 -27 33 -3 3 -19 23 -35 45 -17 22
-32 42 -35 45 -3 3 -36 45 -74 94 -56 73 -66 91 -54 100 63 48 144 111 148
116 3 3 26 22 51 42 l46 37 17 -49 c23 -63 85 -126 140 -141 108 -29 210 15
258 112 33 65 35 121 8 181 -40 89 -100 128 -197 128 -34 0 -73 -4 -87 -10
-44 -17 -100 -76 -120 -128 -21 -53 -31 -55 -68 -19 -7 7 -40 33 -73 57 -33
25 -69 53 -80 62 -11 10 -28 23 -39 31 -17 13 -10 24 108 180 70 92 129 167
132 167 3 0 13 -20 24 -44 22 -53 62 -96 109 -119 44 -22 142 -22 183 -1 49
25 96 74 103 105 4 16 11 31 16 34 12 8 12 112 0 120 -5 3 -12 19 -16 35 -9
40 -83 100 -145 116 -106 27 -214 -32 -254 -141 -11 -27 -20 -51 -22 -53 -2
-3 -725 173 -814 198 -19 6 -53 14 -75 19 -197 46 -212 52 -220 93 -10 48 -52
111 -92 136 -123 81 -312 8 -330 -128 l-6 -40 -558 0 c-526 0 -559 1 -559 18
-1 31 -36 96 -71 130 -112 109 -331 42 -355 -110 l-7 -38 -557 0 -558 0 -7 33
c-10 45 -52 110 -90 135 -62 43 -172 45 -235 5 -54 -35 -100 -103 -100 -150
l0 -23 -560 0 -560 0 0 23 c0 29 -36 96 -68 126 -65 60 -167 71 -254 27 l-53
-26 -80 29 c-186 67 -232 84 -262 97 -17 8 -38 14 -46 14 -9 0 -19 5 -22 10
-3 6 -13 10 -22 10 -8 0 -29 7 -46 14 -18 8 -63 26 -102 40 -146 51 -241 86
-260 95 -11 5 -87 34 -170 64 -82 30 -152 61 -156 68 -4 8 -12 32 -19 54 -19
57 -46 89 -100 119 -56 31 -146 35 -195 9z m184 -22 c138 -69 137 -282 -2
-354 -23 -11 -57 -18 -92 -18 -68 0 -117 23 -159 75 -27 33 -31 47 -34 109 -2
56 1 80 16 107 53 95 171 131 271 81z m-37 -571 c83 -24 139 -99 139 -189 1
-104 -50 -171 -149 -196 -89 -23 -184 21 -223 102 -32 66 -24 158 17 210 58
71 132 96 216 73z m1597 -24 c42 -27 71 -69 91 -128 9 -31 9 -48 -4 -91 -65
-224 -391 -179 -389 54 1 43 7 66 27 97 27 43 85 86 127 95 44 10 108 -2 148
-27z m1549 0 c55 -35 92 -101 92 -166 0 -196 -250 -273 -361 -112 -20 30 -24
48 -24 112 0 71 2 79 33 118 29 37 56 55 112 76 30 11 109 -3 148 -28z m1535
11 c59 -31 107 -105 109 -170 3 -100 -55 -176 -152 -202 -44 -11 -58 -11 -99
1 -117 35 -180 160 -133 266 25 56 51 84 105 109 48 22 123 21 170 -4z m1565
-11 c111 -70 123 -229 26 -320 -15 -13 -51 -31 -81 -39 -48 -14 -59 -14 -104
-1 -127 38 -185 170 -124 283 25 44 75 88 119 103 40 14 122 1 164 -26z
m-4961 -231 c8 -27 22 -58 30 -67 13 -15 13 -18 2 -22 -8 -3 -90 -33 -184 -67
-163 -60 -205 -69 -229 -50 -6 4 -49 21 -96 37 -47 15 -96 34 -110 41 -14 7
-33 13 -42 13 -9 0 -20 5 -23 10 -3 6 -13 10 -22 10 -8 0 -29 6 -46 14 -18 7
-103 39 -189 71 -87 31 -158 59 -158 61 0 2 237 3 526 2 l527 -3 14 -50z
m1541 21 c2 -16 14 -46 28 -67 l24 -38 -38 -6 c-20 -4 -48 -10 -62 -15 -14 -5
-41 -12 -60 -15 -32 -6 -123 -27 -367 -84 -61 -14 -92 -17 -120 -10 -21 5
-110 25 -198 45 -200 45 -257 59 -321 74 l-50 13 23 45 c13 25 23 56 23 69 l0
23 558 -2 557 -3 3 -29z m1487 16 c-16 -9 -70 -37 -120 -62 -49 -25 -92 -47
-95 -50 -13 -13 -269 -140 -282 -140 -8 0 -37 12 -64 26 -64 34 -323 169 -396
206 -32 16 -58 31 -58 34 0 2 235 4 523 4 502 0 521 -1 492 -18z m1574 14 c-2
-2 -60 -33 -129 -69 -69 -35 -183 -94 -253 -131 -70 -36 -133 -66 -140 -66 -7
0 -50 20 -97 44 -47 24 -157 81 -245 126 -88 45 -164 86 -169 91 -6 5 210 9
514 9 288 0 521 -2 519 -4z m-2579 -92 c0 -3 5 -10 11 -17 6 -7 34 -50 64 -97
30 -47 58 -90 64 -97 6 -7 11 -16 11 -21 0 -4 14 -27 32 -51 l31 -43 -24 -19
c-13 -10 -33 -22 -44 -25 -11 -4 -22 -9 -25 -13 -6 -7 -154 -81 -162 -81 -3 0
-10 19 -17 42 -30 99 -105 153 -211 152 -53 0 -73 -5 -108 -28 l-44 -27 -91
21 c-104 25 -194 45 -282 65 -145 33 -186 43 -191 48 -3 2 39 15 93 27 192 44
349 81 411 96 57 15 64 15 80 1 53 -48 154 -60 227 -27 49 23 102 84 116 135
l10 36 25 -36 c13 -20 24 -38 24 -41z m1110 -30 c60 -79 177 -107 264 -64 56
28 77 51 109 114 l25 49 18 -29 c10 -16 36 -58 59 -94 82 -128 132 -206 153
-242 l22 -36 -33 -21 c-19 -12 -37 -21 -39 -21 -3 0 -42 -20 -87 -45 -45 -25
-85 -45 -90 -45 -5 0 -13 15 -17 32 -12 58 -57 113 -117 145 -50 26 -154 23
-201 -6 -47 -29 -93 -92 -102 -137 -3 -19 -10 -34 -15 -34 -10 0 -240 118
-251 129 -3 3 28 59 70 123 43 65 102 157 132 204 l54 85 16 -44 c8 -24 22
-53 30 -63z m1535 19 c48 -73 124 -109 209 -100 30 3 67 13 83 23 44 28 92 85
99 119 12 56 7 59 114 -80 30 -38 58 -74 62 -80 5 -5 41 -53 80 -105 40 -52
81 -104 90 -114 23 -26 13 -35 -59 -53 -32 -8 -82 -21 -110 -29 -29 -8 -77
-21 -107 -28 l-55 -14 -11 47 c-12 52 -41 88 -102 129 -35 23 -52 27 -107 26
-54 0 -74 -5 -109 -27 -52 -34 -102 -101 -102 -139 0 -15 -5 -28 -10 -28 -21
0 -250 125 -250 136 0 7 22 45 48 86 43 64 149 230 177 276 29 48 29 48 36 15
3 -18 14 -45 24 -60z m650 43 c77 -21 169 -44 205 -52 36 -8 92 -22 125 -30
33 -8 85 -21 115 -28 103 -25 373 -96 377 -100 3 -3 -70 -26 -147 -46 -19 -5
-66 -18 -105 -28 -38 -11 -99 -27 -135 -37 -36 -9 -77 -21 -92 -26 -23 -7 -37
-1 -90 38 -35 25 -65 49 -68 53 -3 3 -84 66 -180 140 -96 73 -182 140 -190
148 -13 12 -11 14 15 9 17 -2 93 -21 170 -41z m-2326 -23 c-29 -32 -104 -110
-166 -173 l-112 -115 -73 39 c-40 21 -77 42 -81 46 -5 4 18 21 50 37 32 16
119 61 193 100 175 92 234 122 239 123 2 0 -20 -26 -50 -57z m-812 -25 c76
-39 178 -92 227 -118 50 -25 91 -50 92 -56 2 -5 -33 -27 -77 -49 l-80 -39 -46
49 c-25 28 -97 103 -160 168 -62 64 -109 117 -104 117 5 0 72 -32 148 -72z
m1488 32 c27 -15 127 -66 220 -115 94 -48 171 -89 172 -89 1 -1 -35 -22 -81
-46 l-84 -43 -148 152 c-82 84 -153 159 -157 167 -10 17 6 12 78 -26z m878 -2
c-22 -24 -94 -99 -160 -167 l-119 -124 -50 25 c-27 13 -64 32 -83 42 l-33 18
30 18 c16 10 115 62 218 115 104 54 193 101 199 106 5 5 16 9 24 9 10 0 0 -16
-26 -42z m955 -257 c53 -40 98 -76 100 -80 1 -5 -28 -16 -65 -26 -37 -10 -73
-20 -79 -22 -7 -2 -78 83 -159 189 -82 106 -155 202 -164 212 -9 11 48 -30
127 -90 79 -60 187 -142 240 -183z m1002 239 c22 -11 52 -39 67 -62 24 -36 28
-52 28 -114 0 -61 -4 -77 -25 -107 -37 -52 -72 -76 -124 -86 -130 -24 -235 54
-244 181 -9 126 92 226 216 213 23 -3 60 -14 82 -25z m-3542 -87 c-35 -54 -83
-128 -107 -165 -24 -38 -45 -68 -46 -68 -2 0 -69 32 -73 35 -3 3 81 92 243
260 22 23 41 41 43 39 2 -1 -25 -46 -60 -101z m912 -194 c0 -3 -15 -13 -34
-22 -32 -15 -35 -15 -48 1 -17 20 -78 111 -78 117 0 2 -26 43 -58 92 -32 48
-62 95 -66 103 -4 8 58 -52 138 -135 80 -82 146 -153 146 -156z m668 242 c-18
-28 -61 -94 -95 -147 -35 -53 -63 -99 -63 -104 0 -4 -6 -13 -14 -19 -11 -10
-22 -9 -48 5 -18 9 -35 18 -37 20 -2 2 48 56 112 121 63 65 127 133 142 151
39 47 41 33 3 -27z m-2218 -241 c0 -7 -71 -43 -74 -38 -1 2 -18 28 -37 58 -87
133 -148 230 -159 251 -6 13 52 -41 129 -120 78 -80 141 -148 141 -151z
m-2254 219 c13 -21 89 -49 137 -49 50 0 109 20 139 46 13 13 24 14 50 6 18 -5
65 -17 103 -26 237 -53 430 -98 434 -101 2 -2 -7 -6 -20 -9 -136 -31 -210 -48
-241 -56 -20 -6 -56 -14 -80 -19 -23 -5 -84 -18 -135 -30 l-92 -20 -48 27
c-67 38 -149 38 -216 0 l-49 -27 -126 45 c-70 25 -136 50 -147 55 -11 5 -33
13 -49 19 -16 6 -27 13 -24 15 5 5 337 132 350 134 4 1 10 -4 14 -10z m-320
-164 c16 -8 35 -15 42 -15 7 0 20 -5 30 -10 15 -9 156 -62 204 -77 15 -4 14
-10 -8 -50 -13 -25 -24 -57 -24 -69 l0 -24 -532 0 -533 1 190 71 c105 38 204
76 220 83 17 7 59 22 95 34 36 12 74 26 85 31 103 49 172 56 231 25z m1309 14
c22 -6 67 -17 100 -24 62 -14 128 -29 280 -65 50 -11 104 -23 121 -26 l32 -6
-24 -42 c-13 -22 -24 -53 -24 -68 l0 -28 -560 0 -560 0 0 23 c0 12 -9 40 -20
62 -11 22 -20 42 -20 45 0 3 30 13 68 22 113 28 233 56 312 73 65 14 131 30
165 40 23 7 93 4 130 -6z m1562 -30 c43 -23 80 -43 81 -45 6 -4 -160 -174
-170 -174 -11 0 -163 159 -163 171 0 9 144 88 162 89 7 0 47 -19 90 -41z
m1550 0 c43 -23 79 -43 81 -44 5 -5 -164 -175 -174 -175 -9 0 -155 153 -162
171 -2 4 19 18 45 32 26 14 62 32 78 41 41 22 44 21 132 -25z m1947 19 c-16
-12 -31 -25 -34 -28 -3 -3 -48 -39 -100 -80 -52 -41 -101 -80 -109 -88 -8 -7
-24 -20 -37 -28 -22 -15 -27 -13 -104 47 -57 45 -77 65 -67 70 7 5 74 24 148
44 128 35 208 57 274 75 51 14 59 11 29 -12z m-20 -65 c-16 -21 -33 -43 -39
-50 -23 -28 -32 -40 -55 -73 -29 -41 -31 -44 -69 -89 l-28 -34 -37 29 c-20 16
-36 31 -36 34 1 3 29 26 63 52 34 26 76 58 92 72 81 66 130 104 134 101 1 -2
-10 -21 -25 -42z m-7367 -6 c77 -29 125 -100 124 -186 0 -67 -10 -95 -48 -137
-91 -100 -264 -78 -323 42 -24 48 -26 129 -6 178 37 90 157 138 253 103z
m1558 -6 c55 -25 90 -66 110 -128 16 -49 16 -56 0 -105 -28 -89 -83 -136 -169
-145 -118 -12 -217 75 -219 192 -3 146 147 247 278 186z m1541 3 c79 -32 124
-100 124 -184 0 -122 -99 -209 -222 -198 -51 5 -102 38 -142 91 -24 33 -33
130 -17 180 32 97 159 152 257 111z m1559 -3 c56 -26 91 -67 109 -128 13 -48
13 -58 0 -104 -53 -178 -265 -204 -369 -44 -14 22 -20 48 -20 96 0 57 4 70 30
105 16 21 38 46 49 54 56 42 138 50 201 21z m1543 4 c76 -32 122 -102 122
-185 0 -221 -300 -276 -386 -71 -39 93 12 213 107 255 45 19 111 20 157 1z
m-2528 -62 c30 -32 65 -70 79 -85 l25 -28 -82 0 -81 0 -40 67 -40 67 27 17
c42 27 55 23 112 -38z m360 42 c17 -9 30 -20 30 -25 0 -5 -17 -36 -37 -69
l-38 -60 -85 -1 -85 0 85 85 c47 47 88 85 93 85 4 0 21 -7 37 -15z m1212 -67
l80 -83 -73 -3 c-40 -2 -77 -1 -84 2 -12 4 -88 126 -83 132 8 7 64 34 72 34 5
0 45 -37 88 -82z m339 65 c16 -10 29 -21 29 -26 0 -4 -18 -35 -40 -68 l-41
-59 -81 0 -82 0 80 84 c43 46 85 84 92 85 8 0 27 -7 43 -16z m-1291 -134 l35
-18 -163 -1 -162 0 42 63 42 63 85 -45 c47 -24 102 -52 121 -62z m812 48 l36
-62 -73 -3 c-41 -2 -111 -2 -155 0 l-82 3 107 55 c59 30 109 58 112 63 9 15
19 5 55 -56z m673 -16 l99 -51 -162 0 -161 0 41 64 c38 60 42 64 62 51 12 -7
66 -36 121 -64z m1169 47 c22 -18 46 -36 51 -41 6 -4 25 -20 43 -35 l32 -27
-87 -67 -87 -66 -20 26 c-11 15 -23 29 -26 32 -22 20 -113 146 -114 158 -1 11
19 21 64 32 92 24 97 24 144 -12z m-3387 -39 l33 -54 -75 -3 c-41 -2 -110 -2
-155 0 l-81 3 113 58 c61 31 116 56 122 54 6 -2 25 -28 43 -58z m3178 -16 c55
-69 135 -173 135 -176 0 -6 -490 118 -490 124 0 3 30 13 68 22 61 16 130 35
207 57 47 13 48 12 80 -27z m-5475 -85 c0 -13 9 -43 20 -67 11 -24 19 -46 17
-48 -2 -1 -73 -19 -158 -38 -85 -20 -183 -42 -219 -51 -237 -55 -210 -53 -310
-29 -162 38 -187 43 -255 59 -38 9 -110 25 -159 36 -49 11 -91 22 -93 24 -3 2
5 22 16 45 12 22 21 52 21 66 l0 25 560 0 560 0 0 -22z m1550 -3 c0 -14 9 -44
21 -66 11 -23 19 -43 16 -45 -2 -2 -46 -13 -98 -25 -52 -11 -119 -27 -149 -34
-30 -7 -84 -20 -120 -28 -36 -8 -99 -23 -140 -32 -88 -21 -95 -21 -180 -1 -36
8 -94 22 -130 30 -36 9 -134 31 -219 51 -85 19 -156 37 -159 40 -3 2 3 15 11
29 9 14 19 43 23 65 l7 41 558 0 559 0 0 -25z m829 -23 c17 -27 31 -53 31 -59
0 -5 -14 -22 -30 -38 l-31 -29 -115 58 c-64 32 -139 71 -167 87 l-52 29 166 0
167 0 31 -48z m131 44 c0 -2 -18 -23 -40 -46 -43 -46 -44 -46 -79 13 l-23 37
71 0 c39 0 71 -2 71 -4z m190 -6 c0 -6 -10 -25 -22 -43 -13 -18 -24 -34 -26
-36 -3 -6 -82 71 -82 81 0 4 29 8 65 8 38 0 65 -4 65 -10z m345 1 c-29 -26
-309 -161 -323 -156 -9 3 -27 19 -39 34 l-23 29 20 25 c11 14 20 29 20 33 0 4
7 16 17 26 14 16 34 18 177 18 91 0 156 -4 151 -9z m876 -28 c41 -67 42 -74
12 -105 -32 -33 -37 -34 -83 -9 -19 10 -89 46 -155 80 -66 35 -122 64 -124 67
-2 2 70 4 161 4 l166 0 23 -37z m113 5 c-16 -18 -34 -38 -41 -45 -6 -7 -14
-13 -17 -13 -6 0 -56 76 -56 85 0 3 32 5 72 5 l72 0 -30 -32z m109 -151 c-26
-42 -51 -76 -54 -76 -10 -1 -101 139 -97 150 2 5 23 31 48 59 l45 50 53 -53
54 -54 -49 -76z m89 138 c-15 -25 -29 -45 -32 -45 -3 0 -26 20 -50 45 l-44 45
77 0 77 0 -28 -45z m353 32 c-11 -8 -42 -25 -70 -38 -27 -13 -52 -26 -55 -29
-9 -9 -169 -90 -177 -90 -5 0 -23 13 -41 29 l-32 30 33 55 32 56 165 0 c141 0
162 -2 145 -13z m1283 -13 c18 -15 32 -30 32 -35 0 -4 -18 -30 -40 -57 l-39
-50 -58 13 c-116 27 -115 23 -26 93 43 33 83 61 89 62 5 0 25 -12 42 -26z
m-3629 -256 c2 -5 -55 -68 -127 -141 l-130 -131 -11 42 c-14 50 -73 115 -125
136 -68 28 -167 14 -218 -31 -14 -13 -24 -13 -80 1 -34 8 -103 25 -153 36
-395 90 -384 85 -240 117 39 8 95 21 125 28 340 80 328 78 356 56 13 -10 47
-25 75 -31 114 -28 228 36 258 142 l13 47 127 -131 c69 -71 128 -134 130 -140z
m354 223 l47 -49 -47 -76 c-27 -41 -52 -74 -58 -73 -8 3 -74 100 -91 135 -7
13 73 109 92 111 5 1 31 -21 57 -48z m540 -56 c36 -60 136 -103 210 -91 83 14
145 66 174 145 l17 49 40 -41 c21 -23 79 -83 128 -134 48 -50 88 -94 88 -96 0
-5 -50 -59 -168 -181 -54 -56 -88 -84 -90 -75 -32 105 -122 178 -219 179 -40
0 -113 -26 -143 -52 -27 -23 -57 -72 -65 -105 -3 -18 -10 -33 -13 -33 -11 0
-250 254 -250 265 0 6 57 70 126 144 l127 134 10 -39 c5 -22 18 -53 28 -69z
m1554 -3 c41 -51 85 -78 138 -87 113 -16 216 48 245 154 8 30 15 40 23 33 7
-5 82 -62 167 -128 85 -65 158 -123 162 -129 5 -5 -2 -18 -15 -28 -40 -33 -52
-42 -97 -76 -25 -19 -52 -41 -60 -48 -8 -7 -40 -32 -70 -56 -30 -23 -61 -48
-69 -55 -20 -19 -34 -10 -44 28 -28 111 -175 180 -284 135 -21 -9 -46 -23 -57
-33 -35 -31 -76 -95 -76 -119 0 -12 -4 -23 -8 -23 -8 0 -252 252 -255 264 -1
3 56 67 128 142 l130 137 6 -37 c3 -20 19 -53 36 -74z m569 74 c60 -14 125
-31 144 -36 19 -6 55 -15 80 -21 149 -35 149 -34 103 -65 -16 -9 -49 -35 -74
-56 -48 -40 -69 -46 -91 -25 -7 7 -29 24 -48 37 -35 25 -240 187 -250 198 -3
3 2 3 11 -1 9 -3 65 -17 125 -31z m-2926 -142 c2 -3 -14 -23 -36 -45 l-40 -40
-90 94 c-155 163 -156 158 11 72 83 -42 152 -79 155 -81z m719 152 c-2 -3 -53
-54 -112 -115 -60 -61 -114 -111 -119 -111 -6 0 -26 16 -44 34 -24 25 -30 37
-22 43 25 17 283 151 292 152 5 1 7 -1 5 -3z m601 -30 c19 -12 79 -44 132 -71
54 -28 98 -52 98 -55 0 -3 -17 -23 -37 -44 l-37 -38 -113 116 c-62 64 -113
118 -113 120 0 8 30 -5 70 -28z m854 -69 c-49 -50 -100 -102 -113 -115 l-24
-23 -34 33 c-18 18 -32 39 -31 46 3 13 279 163 287 156 3 -2 -36 -46 -85 -97z
m1536 -27 c65 -50 105 -86 96 -88 -8 -2 -23 1 -33 6 -10 5 -73 22 -140 38 -68
16 -123 31 -123 34 0 3 11 17 24 31 13 14 29 35 35 48 7 12 16 21 21 19 5 -2
59 -41 120 -88z m460 67 c86 -42 128 -143 101 -243 -36 -136 -216 -184 -326
-87 -46 41 -60 75 -60 150 0 63 3 76 30 115 37 53 102 87 165 87 26 0 64 -9
90 -22z m-4060 -49 c0 -6 6 -19 13 -27 8 -9 24 -33 36 -54 l23 -37 -71 36
c-39 20 -71 39 -71 42 0 3 12 18 27 34 25 26 43 29 43 6z m267 -43 c-1 -2 -33
-19 -71 -39 -77 -41 -78 -38 -20 50 l36 55 29 -32 c16 -18 28 -33 26 -34z
m1295 18 c66 -101 63 -94 42 -86 -18 6 -114 61 -123 69 -5 5 40 54 49 54 4 0
18 -17 32 -37z m232 11 c15 -14 27 -26 25 -28 -15 -11 -142 -76 -144 -74 -4 4
79 128 85 128 3 -1 18 -12 34 -26z m-4144 -14 c45 -32 119 -45 176 -31 26 7
60 21 75 32 l28 20 113 -26 c62 -14 140 -32 173 -40 33 -7 94 -21 135 -31 41
-9 92 -22 112 -28 l38 -12 -48 -12 c-26 -6 -76 -18 -112 -26 -61 -14 -97 -23
-324 -76 -77 -19 -90 -19 -105 -7 -27 25 -91 47 -136 47 -45 0 -109 -22 -136
-47 -18 -15 -9 -16 -256 42 -35 8 -91 21 -125 29 -35 8 -96 22 -135 32 l-73
18 38 12 c20 6 69 19 107 27 195 45 257 59 330 76 101 25 92 24 125 1z m5594
-37 c25 -32 46 -64 46 -71 0 -14 -87 -132 -96 -132 -10 0 -164 122 -164 130 0
4 17 20 38 36 20 15 39 31 42 34 10 12 75 60 82 60 3 0 27 -26 52 -57z m55 43
c29 -8 55 -17 58 -20 7 -7 -38 -78 -47 -74 -17 6 -90 108 -78 108 7 0 37 -7
67 -14z m246 -62 c83 -20 157 -39 165 -42 16 -5 -18 -16 -204 -64 l-119 -31
-33 39 c-38 44 -39 48 -21 66 7 7 21 25 31 41 10 15 21 27 25 27 3 0 74 -16
156 -36z m-3550 -12 c39 -21 69 -41 67 -47 -2 -5 -35 -27 -74 -48 -77 -41 -75
-41 -131 16 -15 16 -24 34 -20 40 13 23 68 76 78 76 6 -1 42 -17 80 -37z m327
1 c21 -20 38 -42 38 -48 0 -6 -18 -28 -39 -49 l-39 -38 -82 42 -82 43 29 18
c46 29 117 67 128 68 5 1 26 -16 47 -36z m1215 1 c40 -20 76 -40 78 -44 3 -4
-32 -27 -76 -50 l-81 -42 -38 43 c-36 42 -37 45 -22 64 35 42 56 65 60 65 3 0
39 -16 79 -36z m341 -7 l42 -43 -44 -43 -44 -43 -81 42 c-45 24 -80 45 -77 47
6 7 150 82 156 83 3 0 25 -19 48 -43z m-4788 -70 c36 -9 108 -25 160 -37 52
-12 120 -28 150 -35 30 -7 86 -20 123 -28 37 -8 70 -17 73 -19 2 -3 -5 -25
-16 -49 -11 -24 -20 -54 -20 -66 l0 -23 -560 0 -560 0 0 28 c0 15 -11 46 -24
69 l-24 42 31 6 c29 6 69 15 262 59 199 46 253 59 275 67 27 9 34 8 130 -14z
m1576 -6 c65 -16 164 -39 219 -51 55 -12 114 -26 130 -30 17 -5 55 -14 87 -20
l56 -11 -24 -42 c-13 -23 -24 -54 -24 -69 l0 -28 -559 0 -558 0 -7 41 c-4 22
-13 51 -22 64 -18 28 -11 45 18 45 18 0 65 10 253 55 33 8 94 22 135 31 41 9
95 22 120 29 25 7 48 13 51 14 3 1 60 -12 125 -28z m4436 -44 c7 -7 26 -22 41
-34 32 -25 27 -31 -47 -49 -64 -16 -193 -50 -266 -70 -101 -28 -133 -35 -136
-31 -3 2 67 60 153 129 l158 126 42 -29 c23 -16 47 -35 55 -42z m218 64 c0 -5
12 -23 26 -40 28 -33 29 -32 -41 -49 -22 -5 -49 -13 -59 -18 -26 -10 -18 11
26 71 32 43 48 55 48 36z m378 -14 c-9 -6 -43 -32 -75 -57 -32 -24 -66 -52
-76 -62 -10 -10 -29 -26 -44 -35 -28 -18 -25 -21 -83 59 l-20 26 47 15 c27 8
77 22 113 32 36 9 83 23 105 29 45 14 56 11 33 -7z m-3808 -71 c-11 -9 -300
-155 -300 -150 0 3 50 56 112 120 l112 115 40 -40 c22 -22 38 -42 36 -45z
m607 -33 c61 -65 110 -119 108 -122 -3 -2 -10 1 -17 6 -7 6 -60 34 -118 63
-58 30 -120 62 -138 73 l-34 20 38 38 c21 22 40 39 43 39 3 0 56 -53 118 -117z
m920 67 c28 -31 28 -33 0 -46 -12 -6 -79 -41 -149 -77 -71 -36 -128 -63 -128
-60 0 3 50 57 112 119 121 122 115 120 165 64z m622 -61 c58 -61 107 -115 109
-120 2 -4 -27 8 -65 28 -110 58 -217 115 -226 120 -8 5 60 83 72 83 2 0 52
-50 110 -111z m-1990 64 c-12 -21 -28 -45 -34 -53 -7 -8 -15 -24 -19 -34 -6
-18 -9 -17 -36 9 -17 16 -29 33 -27 38 2 8 124 77 135 77 2 0 -6 -17 -19 -37z
m104 -39 l48 -75 -51 -50 -52 -51 -49 48 c-27 27 -49 52 -49 57 0 4 9 20 19
35 11 15 31 46 45 70 15 23 30 42 34 42 4 -1 29 -34 55 -76z m115 1 c4 -4 -47
-55 -55 -55 -8 0 -83 111 -83 123 0 5 123 -55 138 -68z m1434 -1 l48 -74 -47
-50 c-26 -28 -50 -50 -54 -50 -10 0 -99 93 -99 104 0 12 90 146 98 145 4 0 28
-34 54 -75z m91 -26 c-15 -15 -29 -28 -32 -28 -7 0 -81 113 -81 123 0 4 32 -9
70 -30 l71 -36 -28 -29z m-205 54 c-13 -21 -30 -50 -39 -63 l-17 -24 -26 24
c-14 14 -26 28 -26 32 0 9 99 66 118 68 9 1 6 -12 -10 -37z m-5280 -39 c43
-19 89 -65 104 -102 5 -14 10 -52 10 -84 0 -70 -30 -122 -94 -164 -34 -23 -53
-28 -102 -28 -71 0 -113 21 -159 78 -52 64 -49 185 5 248 56 65 160 87 236 52z
m1568 -9 c47 -31 73 -66 89 -121 25 -83 -7 -168 -84 -219 -34 -22 -52 -26
-107 -26 -57 0 -72 4 -107 29 -102 71 -121 220 -39 301 23 23 64 49 87 55 38
11 132 -1 161 -19z m1534 4 c24 -13 57 -40 74 -61 26 -32 31 -48 34 -105 3
-81 -20 -130 -86 -176 -36 -25 -51 -30 -105 -30 -111 0 -187 68 -195 174 -5
71 10 121 49 157 70 67 150 81 229 41z m1544 7 c140 -67 159 -255 36 -344 -75
-54 -188 -48 -251 12 -69 68 -87 173 -42 244 24 39 83 91 108 96 48 10 119 6
149 -8z m1580 -19 c60 -45 80 -83 84 -156 3 -79 -21 -128 -86 -175 -39 -26
-52 -30 -112 -29 -44 0 -76 6 -91 16 -99 65 -132 162 -90 260 35 82 103 121
199 114 47 -3 70 -10 96 -30z m918 -64 c9 -19 10 -26 1 -29 -6 -2 -24 -15 -39
-28 -15 -13 -33 -21 -38 -17 -28 17 -151 115 -154 122 -2 4 14 11 36 15 21 3
56 12 78 20 39 13 39 13 71 -23 17 -19 37 -46 45 -60z m-3482 16 c0 -5 -15
-31 -32 -58 l-33 -50 -162 0 c-90 0 -163 2 -163 4 0 2 42 25 93 51 50 27 124
65 162 85 l70 36 33 -30 c17 -16 32 -34 32 -38z m639 -100 c1 -5 -71 -8 -158
-8 l-160 0 -31 46 c-17 25 -32 49 -33 53 -1 4 11 23 28 43 l29 36 163 -82 c89
-44 162 -84 162 -88z m881 48 l-34 -56 -163 0 c-90 0 -163 2 -163 6 0 3 15 12
33 20 17 8 91 45 162 83 l130 68 34 -33 34 -33 -33 -55z m366 115 c5 -5 72
-41 149 -81 77 -39 144 -76 150 -81 5 -5 -56 -9 -155 -9 l-165 0 -32 55 -32
55 32 34 c36 38 39 40 53 27z m1308 -53 c-9 -15 -66 -91 -74 -98 -3 -3 -23
-29 -44 -57 -21 -29 -40 -53 -42 -53 -9 0 -260 62 -293 72 l-34 11 39 13 c21
7 57 17 79 23 22 6 65 17 95 25 30 9 91 25 135 36 80 22 137 37 143 39 2 1 0
-5 -4 -11z m83 -24 c92 -69 113 -86 113 -95 0 -4 -26 -28 -57 -52 -32 -25 -69
-54 -82 -66 -13 -12 -27 -21 -30 -21 -13 1 -155 40 -159 45 -4 4 157 225 165
225 1 0 24 -16 50 -36z m-3214 -43 c20 -22 37 -42 37 -45 0 -3 -31 -6 -70 -6
-38 0 -70 2 -70 5 0 10 53 85 59 85 4 0 24 -18 44 -39z m192 19 c3 -11 10 -20
14 -20 4 0 13 -11 19 -25 l12 -25 -77 0 -77 0 44 45 c50 51 56 53 65 25z
m1356 -22 l38 -43 -66 -3 c-36 -2 -67 -1 -70 2 -5 5 45 86 54 86 3 0 23 -19
44 -42z m211 -3 l28 -45 -77 0 -76 0 19 22 c29 33 66 68 73 68 3 0 18 -20 33
-45z m1719 -26 c19 -23 44 -56 56 -73 12 -17 28 -37 34 -45 7 -7 28 -34 47
-60 19 -25 40 -53 46 -60 11 -15 -72 39 -96 62 -7 7 -53 43 -103 81 -49 38
-92 71 -95 74 -3 2 4 9 14 16 10 6 26 19 35 29 21 24 24 23 62 -24z m-5946
-82 c6 -26 20 -56 30 -67 23 -25 48 -17 -320 -100 -99 -22 -196 -45 -216 -51
-40 -12 -68 -10 -174 15 -168 39 -384 87 -435 98 -67 13 -66 13 -46 33 8 9 21
35 27 58 6 23 13 48 15 55 3 10 119 12 555 10 l552 -3 12 -48z m1543 23 c4
-33 33 -100 44 -100 4 0 8 -4 8 -9 0 -4 -28 -13 -62 -20 -35 -6 -90 -17 -123
-25 -33 -8 -103 -24 -155 -36 -52 -13 -122 -29 -155 -36 -102 -24 -135 -27
-173 -15 -20 6 -118 29 -217 51 -311 70 -325 74 -325 82 0 4 9 25 20 45 11 21
20 47 20 59 0 11 3 24 7 27 3 4 254 6 557 5 l551 -3 3 -25z m782 22 c0 -4 -16
-34 -36 -65 -26 -42 -41 -56 -52 -52 -43 14 -222 112 -216 118 10 10 304 9
304 -1z m180 1 c-1 -5 -36 -46 -80 -92 l-78 -84 -39 18 c-21 10 -39 19 -41 20
-2 2 17 35 42 74 l46 71 75 0 c41 0 75 -3 75 -7z m249 -56 c22 -35 41 -68 41
-73 0 -5 -16 -18 -36 -29 l-35 -19 -79 80 c-44 43 -79 85 -80 92 0 8 21 12 74
12 l74 0 41 -63z m291 56 c0 -7 -211 -123 -223 -123 -10 0 -86 118 -80 124 9
9 303 7 303 -1z m830 1 c0 -4 -16 -33 -36 -66 -41 -68 -34 -68 -154 -3 -45 24
-91 47 -101 50 -52 17 -6 25 136 25 85 0 155 -3 155 -6z m178 -3 c-1 -5 -38
-46 -81 -91 l-78 -82 -37 18 c-20 9 -38 18 -40 19 -4 4 71 129 83 137 15 11
157 10 153 -1z m250 -55 c23 -35 42 -68 42 -73 0 -5 -16 -17 -36 -28 l-35 -19
-84 85 c-47 46 -85 87 -85 92 0 4 35 7 78 7 l78 0 42 -64z m292 57 c0 -10
-228 -129 -233 -122 -15 18 -67 111 -67 119 0 6 58 10 150 10 83 0 150 -3 150
-7z m1404 -132 c81 -62 146 -114 144 -116 -3 -3 -441 103 -472 114 -16 6 -6
18 64 74 70 57 85 65 99 54 9 -7 83 -63 165 -126z m-3765 -7 c2 -1 -26 -49
-61 -106 -128 -205 -191 -298 -198 -293 -4 3 -10 17 -13 32 -9 43 -71 109
-122 129 -59 22 -152 15 -194 -15 -16 -12 -39 -21 -51 -21 -19 0 -248 50 -435
95 -33 8 -72 17 -87 20 -38 7 -35 21 5 29 17 3 59 12 92 20 406 94 445 102
454 89 3 -6 20 -17 37 -26 124 -64 270 4 305 140 l11 43 127 -66 c69 -37 128
-68 130 -70z m461 -41 c0 -6 -37 -30 -81 -53 l-81 -41 -84 43 c-46 23 -83 46
-82 50 2 4 39 46 83 93 l80 85 82 -82 c46 -46 83 -88 83 -95z m444 53 c75 -99
228 -109 318 -21 32 31 67 97 68 128 0 14 23 6 124 -45 68 -35 127 -68 129
-74 3 -7 -10 -35 -29 -64 -19 -28 -34 -53 -34 -55 0 -2 -28 -46 -62 -98 -35
-52 -76 -117 -91 -143 l-29 -48 -23 48 c-48 99 -118 142 -221 133 -92 -7 -161
-61 -187 -145 l-13 -42 -59 92 c-32 51 -91 143 -131 205 -51 78 -69 115 -61
120 19 12 137 74 197 104 l55 27 11 -43 c6 -24 23 -60 38 -79z m1103 -62 c-7
-6 -45 -28 -85 -49 l-73 -38 -85 43 c-46 24 -83 47 -82 52 2 4 39 46 82 93
l80 87 87 -89 c65 -66 84 -91 76 -99z m988 150 c55 -13 114 -29 131 -34 17 -6
38 -10 47 -10 9 0 17 -2 17 -5 0 -6 -79 -116 -90 -125 -3 -3 -62 -80 -130
-172 -69 -91 -128 -164 -131 -162 -4 2 -10 20 -13 40 -9 47 -81 119 -132 133
-84 23 -161 8 -216 -41 -37 -34 -68 -85 -68 -113 0 -30 -16 -13 -75 81 -33 52
-88 139 -122 192 -35 53 -63 102 -63 109 0 6 39 32 88 56 48 25 101 52 117 61
44 23 52 20 58 -21 13 -76 121 -163 203 -163 104 0 195 76 218 183 6 24 10 26
34 21 15 -3 72 -17 127 -30z m1271 -59 c75 -38 99 -80 99 -176 0 -86 -10 -108
-77 -162 -40 -32 -93 -43 -164 -32 -38 5 -56 16 -94 55 -39 38 -50 56 -55 94
-13 82 1 133 50 182 69 68 155 82 241 39z m-961 -17 c28 -6 54 -14 59 -18 4
-5 -27 -36 -70 -70 -44 -34 -88 -69 -99 -78 -11 -9 -63 -50 -115 -91 -52 -41
-97 -77 -100 -81 -17 -19 -90 -70 -90 -62 0 6 4 12 8 14 5 2 28 30 52 63 24
33 48 65 53 70 4 6 25 33 45 60 144 194 164 217 186 210 11 -4 44 -11 71 -17z
m330 -84 c127 -31 241 -61 255 -67 l25 -10 -30 -8 c-16 -4 -187 -51 -380 -104
-192 -52 -399 -109 -460 -125 -60 -16 -120 -33 -132 -36 -41 -11 -23 10 58 71
44 33 88 67 97 75 9 8 60 49 112 90 52 41 97 77 100 80 3 3 23 18 45 35 22 16
46 35 53 42 7 7 16 13 20 13 4 0 111 -25 237 -56z m-5795 38 c0 -18 85 -47
135 -47 50 0 135 29 135 47 0 13 40 9 126 -12 129 -32 386 -92 422 -97 41 -7
41 -20 0 -28 -18 -4 -60 -13 -93 -20 -167 -39 -242 -57 -319 -75 -106 -25
-111 -25 -170 5 -67 34 -135 34 -205 -1 -61 -31 -61 -31 -280 21 -193 47 -217
52 -278 65 -55 12 -72 30 -28 30 13 0 34 4 47 9 13 5 109 28 213 51 105 23
201 46 215 50 33 11 80 12 80 2z m2219 -9 c17 -10 31 -20 31 -23 0 -3 -66 -72
-146 -155 l-145 -150 49 80 c119 192 166 265 173 265 4 0 21 -8 38 -17z m566
-55 c59 -88 165 -258 165 -263 0 -5 -199 200 -252 260 l-36 39 27 18 c14 9 31
17 37 17 6 1 33 -32 59 -71z m983 56 c18 -8 32 -19 32 -22 -1 -4 -66 -74 -147
-157 -80 -82 -142 -143 -138 -135 5 8 33 53 63 100 107 166 119 185 131 208
14 26 18 27 59 6z m558 -41 c93 -145 174 -275 174 -281 0 -3 -33 30 -74 74
-40 43 -106 112 -145 153 l-72 74 28 18 c16 10 33 18 40 18 7 1 29 -25 49 -56z
m-1966 -33 c28 -17 55 -30 60 -30 23 0 7 -21 -27 -38 -93 -46 -380 -196 -398
-208 -11 -8 -26 -14 -34 -14 -7 0 29 44 82 98 53 53 124 128 158 165 71 77 74
77 159 27z m403 -77 c131 -136 202 -213 194 -213 -5 0 -268 134 -397 203 -35
19 -66 39 -67 44 -3 9 123 82 144 83 6 0 63 -53 126 -117z m1142 80 c41 -21
75 -40 75 -44 0 -3 -42 -28 -92 -54 -88 -46 -295 -153 -348 -181 -46 -25 -33
-4 51 84 47 48 116 120 154 160 38 39 73 72 77 72 4 0 41 -17 83 -37z m363
-35 c175 -181 241 -252 238 -255 -2 -2 -50 20 -107 50 -57 30 -164 85 -236
123 -73 37 -133 71 -133 74 0 5 150 80 161 80 4 0 39 -33 77 -72z m-4848 -32
c154 -34 457 -104 507 -117 41 -11 42 -12 26 -35 -8 -13 -21 -43 -28 -66 l-12
-43 -554 0 -553 0 -7 32 c-3 17 -15 47 -27 66 l-20 35 41 11 c23 6 71 17 107
25 36 9 97 23 135 32 39 9 99 23 135 31 139 31 185 41 185 42 0 1 29 -5 65
-13z m1600 -12 c30 -8 136 -32 235 -54 99 -22 199 -45 222 -51 l42 -11 -24
-38 c-13 -20 -25 -50 -27 -66 l-3 -29 -557 -3 -558 -2 0 22 c0 13 -9 43 -21
67 -23 52 -21 55 61 72 50 10 171 38 385 89 44 10 89 21 100 23 25 6 74 -1
145 -19z m3155 -62 c66 -34 136 -70 155 -80 19 -9 37 -19 40 -22 3 -3 28 -16
55 -29 135 -66 169 -61 -414 -61 -311 0 -521 4 -515 9 5 5 79 45 164 89 85 44
197 102 249 130 109 57 80 61 266 -36z m-1670 65 c11 -8 97 -54 190 -102 236
-123 259 -135 269 -146 6 -5 -182 -9 -509 -9 -305 0 -515 4 -509 9 5 5 92 52
194 104 102 53 210 109 240 126 61 33 95 38 125 18z m-3824 -88 c99 -49 134
-191 71 -283 -35 -51 -66 -72 -124 -88 -70 -18 -146 9 -196 70 -32 40 -37 52
-40 112 -3 48 0 76 12 98 56 108 169 146 277 91z m4640 5 c91 -46 135 -162 96
-255 -30 -72 -112 -129 -188 -129 -71 0 -146 54 -181 129 -74 163 112 336 273
255z m1553 -1 c71 -37 110 -109 104 -195 -6 -77 -42 -132 -111 -164 -67 -31
-105 -30 -173 2 -98 46 -140 161 -95 259 49 105 174 150 275 98z m-4638 -9
c53 -35 71 -60 90 -122 18 -59 10 -99 -32 -164 -72 -113 -248 -107 -327 10
-60 89 -29 220 66 276 60 37 149 36 203 0z m1535 9 c76 -38 114 -108 107 -199
-9 -103 -89 -178 -193 -178 -70 1 -123 29 -162 88 -28 41 -33 57 -33 110 0 82
34 141 106 179 39 22 132 21 175 0z m-3124 -578 c54 -16 105 -63 124 -114 13
-34 13 -119 0 -154 -13 -34 -73 -94 -107 -107 -14 -6 -50 -10 -80 -10 -136 0
-217 108 -190 253 10 52 69 114 124 131 61 19 69 19 129 1z"/>
<path d="M1123 520 c-81 -33 -106 -148 -45 -213 46 -49 146 -55 182 -12 11 13
9 13 -16 0 -72 -37 -122 -8 -131 76 -9 93 15 138 82 152 11 3 4 5 -15 5 -19 0
-45 -3 -57 -8z"/>
<path d="M1270 520 c0 -6 -11 -8 -27 -4 l-28 6 23 -17 c13 -9 27 -27 32 -39 7
-17 9 -13 9 22 1 23 -1 42 -4 42 -3 0 -5 -5 -5 -10z"/>
<path d="M5164 516 c-68 -30 -100 -130 -61 -190 22 -34 72 -59 117 -59 39 0
100 27 100 44 0 6 -12 1 -26 -10 -15 -12 -41 -21 -60 -21 -60 0 -93 62 -81
152 6 48 32 77 78 88 l34 8 -35 1 c-19 0 -49 -6 -66 -13z"/>
<path d="M2018 408 c3 -98 1 -114 -14 -125 -15 -11 -11 -13 31 -13 38 0 46 3
37 12 -8 8 -12 50 -12 125 0 111 0 113 -22 113 -23 0 -23 -2 -20 -112z"/>
<path d="M4878 405 c3 -112 3 -115 -20 -124 -17 -7 -4 -10 52 -10 55 0 69 3
53 9 -20 8 -23 17 -23 60 0 50 1 51 28 48 19 -2 28 -9 30 -25 7 -47 22 -21 22
37 0 58 -15 84 -22 38 -2 -17 -11 -24 -30 -26 -27 -3 -28 -2 -28 47 l0 51 41
0 c40 0 60 -11 72 -40 3 -8 6 0 6 18 l1 32 -92 0 -93 0 3 -115z"/>
<path d="M5292 491 c13 -14 24 -28 26 -30 1 -2 2 9 2 25 0 24 -4 29 -26 30
l-26 2 24 -27z"/>
<path d="M5470 401 c0 -86 -3 -121 -12 -124 -7 -3 10 -5 37 -5 28 0 44 2 38 5
-10 3 -13 38 -13 124 l0 119 -25 0 -25 0 0 -119z"/>
<path d="M1339 424 c-46 -49 -23 -149 36 -154 36 -4 46 0 70 26 38 41 28 113
-19 146 -23 16 -63 7 -87 -18z m75 0 c9 -24 7 -117 -4 -134 -7 -12 -13 -12
-27 -4 -22 13 -31 117 -12 140 15 19 35 18 43 -2z"/>
<path d="M1519 441 c0 -3 0 -39 1 -80 1 -52 -3 -76 -12 -82 -8 -5 6 -9 37 -9
30 0 45 4 37 9 -9 5 -12 27 -10 72 2 53 6 64 21 67 17 3 18 -3 15 -72 l-3 -76
45 1 c25 0 39 3 33 6 -8 3 -13 24 -13 53 0 79 -10 110 -37 116 -16 4 -31 0
-43 -11 -11 -10 -20 -13 -20 -8 0 11 -49 25 -51 14z"/>
<path d="M1713 436 c29 -74 71 -166 76 -166 8 0 42 82 36 88 -3 3 -5 0 -5 -6
0 -7 -4 -12 -8 -12 -11 0 -43 80 -37 90 3 4 -11 10 -30 12 -22 3 -34 0 -32 -6z"/>
<path d="M2131 429 c-26 -24 -23 -43 8 -47 19 -3 22 1 19 25 -2 22 1 28 17 28
15 0 20 -7 20 -29 0 -24 -7 -33 -40 -50 -33 -18 -40 -26 -40 -51 0 -31 20 -43
53 -30 16 6 16 7 0 16 -23 13 -23 32 0 52 27 25 33 21 30 -18 -2 -39 11 -59
38 -53 15 3 17 12 15 68 -1 36 -9 75 -17 88 -19 29 -72 30 -103 1z"/>
<path d="M2310 440 c-8 -5 -7 -15 4 -36 58 -113 67 -151 46 -184 -8 -13 -11
-12 -23 4 -15 20 -37 14 -37 -10 0 -20 24 -28 48 -15 16 9 46 74 77 166 5 16
3 15 -8 -3 -11 -19 -16 -21 -24 -10 -13 17 -33 75 -27 81 8 8 -44 14 -56 7z"/>
<path d="M2515 425 c-48 -47 -25 -152 33 -156 32 -2 47 3 67 23 l20 20 -23
-13 c-26 -16 -50 -5 -69 31 -16 33 -9 40 43 40 37 0 44 3 44 20 0 28 -35 60
-65 60 -14 0 -37 -11 -50 -25z m63 3 c7 -7 12 -20 12 -30 0 -13 -8 -18 -30
-18 -32 0 -36 9 -20 41 12 22 21 24 38 7z"/>
<path d="M2678 367 c3 -59 0 -82 -10 -88 -8 -5 6 -8 37 -8 28 0 44 3 38 6 -19
7 -17 117 2 133 12 10 19 10 27 2 15 -15 39 4 31 24 -8 21 -39 17 -56 -8 -12
-18 -16 -19 -16 -7 -1 10 -12 18 -28 21 l-28 4 3 -79z"/>
<path d="M2835 430 c-24 -27 -13 -62 30 -91 38 -26 45 -46 18 -56 -10 -4 -24
3 -40 21 l-23 27 0 -28 c0 -26 3 -28 41 -31 84 -6 106 55 39 108 -40 32 -52
60 -26 60 8 0 24 -12 35 -26 l21 -27 0 29 c0 27 -3 29 -39 31 -27 2 -44 -3
-56 -17z"/>
<path d="M5579 432 c-26 -22 -20 -56 8 -50 13 3 17 12 15 31 -2 21 1 27 18 27
16 0 20 -6 20 -35 0 -30 -5 -37 -34 -49 -75 -31 -66 -109 8 -80 15 6 15 7 0
18 -19 14 -12 51 11 60 11 4 15 -3 15 -28 0 -37 19 -60 46 -54 15 3 17 13 15
68 -3 82 -20 110 -65 110 -19 0 -44 -8 -57 -18z"/>
<path d="M5974 435 c-56 -39 -51 -135 9 -160 36 -15 59 -10 84 17 18 20 18 21
-3 8 -26 -16 -48 -9 -69 24 -23 34 -12 46 41 46 37 0 44 3 44 20 0 25 -38 60
-65 60 -11 0 -30 -7 -41 -15z m54 -7 c7 -7 12 -20 12 -30 0 -13 -8 -18 -30
-18 -32 0 -36 9 -20 41 12 22 21 24 38 7z"/>
<path d="M6129 373 c2 -48 -1 -78 -9 -88 -11 -13 -6 -15 36 -15 31 0 44 3 36
9 -9 5 -13 28 -12 67 2 91 2 91 -28 96 l-27 4 4 -73z"/>
<path d="M6202 438 c-15 -15 -16 -31 -1 -22 6 3 15 1 19 -6 10 -17 30 -4 30
21 0 22 -29 26 -48 7z"/>
<path d="M6286 434 c-26 -25 -18 -53 25 -94 38 -36 45 -60 15 -60 -7 0 -22 9
-34 20 l-22 21 0 -23 c0 -20 6 -23 45 -26 38 -2 46 1 60 22 16 23 15 27 -1 55
-9 16 -28 34 -41 40 -13 6 -23 19 -23 31 0 24 17 26 42 3 16 -14 18 -14 18 -1
0 14 -27 28 -57 28 -6 0 -19 -7 -27 -16z"/>
<path d="M1844 423 c-1 -10 -5 -27 -9 -38 -12 -30 9 -5 23 28 9 21 9 27 -1 27
-7 0 -13 -8 -13 -17z"/>
<path d="M2431 413 c1 -17 3 -21 6 -10 2 9 9 17 14 17 5 0 9 5 9 10 0 6 -7 10
-15 10 -10 0 -15 -9 -14 -27z"/>
<path d="M5782 363 c21 -42 38 -88 38 -102 1 -22 4 -19 22 18 16 35 18 49 9
60 -16 22 -32 63 -34 84 -1 13 -10 17 -38 17 l-36 0 39 -77z"/>
<path d="M5880 419 c0 -11 -5 -29 -11 -41 -6 -11 -8 -22 -5 -25 3 -3 10 7 16
23 5 16 15 37 20 47 8 13 7 17 -5 17 -8 0 -15 -9 -15 -21z"/>
<path d="M5750 230 c-13 -8 -13 -11 2 -26 14 -15 22 -16 43 -6 14 6 25 17 25
23 0 9 -3 9 -14 0 -10 -9 -15 -8 -20 4 -6 17 -15 19 -36 5z"/>
</g>
</svg>
